<?xml version="1.0" encoding="utf-8"?>
<!-- Generator: Adobe Illustrator 27.9.0, SVG Export Plug-In . SVG Version: 6.00 Build 0)  -->
<svg version="1.1" xmlns="http://www.w3.org/2000/svg" xmlns:xlink="http://www.w3.org/1999/xlink" x="0px" y="0px"
	 viewBox="0 0 350 75" style="enable-background:new 0 0 350 75;" xml:space="preserve">
<style type="text/css">
	.st0{display:none;fill:#201C33;}
	.st1{fill:#FFFFFF;}
	.st2{stroke:#FFFFFF;stroke-miterlimit:10;}
	.st3{clip-path:url(#SVGID_00000152955848282542965000000005421460485248600248_);}
</style>
<g id="Livello_1">
	<rect x="-8.37" y="-13" class="st0" width="433.33" height="105.16"/>
	<g>
		<g>
			<path class="st1" d="M85.17,9.17c2.43,0,4.63,0.6,6.57,1.79c1.95,1.2,3.49,2.83,4.62,4.92c1.13,2.08,1.69,4.45,1.69,7.11
				c0,2.61-0.56,4.98-1.69,7.11c-1.13,2.13-2.67,3.81-4.62,5.05C89.8,36.38,87.61,37,85.17,37H71.69l0.46-0.8v16.74
				c0,0.75-0.24,1.39-0.73,1.93c-0.49,0.53-1.11,0.8-1.86,0.8c-0.8,0-1.43-0.27-1.89-0.8c-0.46-0.53-0.7-1.17-0.7-1.93V11.83
				c0-0.75,0.25-1.38,0.76-1.89c0.51-0.51,1.14-0.76,1.89-0.76H85.17z M85.17,31.89c1.46,0,2.74-0.4,3.85-1.2
				c1.11-0.8,1.99-1.88,2.66-3.25c0.66-1.37,1-2.86,1-4.45c0-1.68-0.33-3.17-1-4.45c-0.66-1.28-1.55-2.31-2.66-3.09
				c-1.11-0.77-2.39-1.16-3.85-1.16H71.69l0.46-0.73v18.99l-0.46-0.66H85.17z"/>
			<path class="st1" d="M125.25,21.16c-0.82-0.46-1.72-0.7-2.69-0.7c-1.64,0-3.14,0.3-4.52,0.9c-1.37,0.6-2.59,1.42-3.65,2.46
				c-1.06,1.04-1.94,2.21-2.62,3.52c-0.24,0.46-0.44,0.92-0.63,1.38v-4.73c0-0.75-0.24-1.38-0.73-1.89
				c-0.49-0.51-1.13-0.76-1.93-0.76c-0.75,0-1.38,0.26-1.89,0.76c-0.51,0.51-0.76,1.14-0.76,1.89v28.96c0,0.75,0.25,1.39,0.76,1.93
				c0.51,0.53,1.14,0.8,1.89,0.8c0.75,0,1.38-0.27,1.89-0.8c0.51-0.53,0.76-1.17,0.76-1.93V36.8c0-1.59,0.28-3.09,0.83-4.48
				c0.55-1.4,1.28-2.65,2.19-3.75c0.91-1.11,1.9-1.96,2.99-2.56c1.08-0.6,2.18-0.9,3.29-0.9c0.8,0,1.46,0.12,1.99,0.37
				c0.53,0.24,1.08,0.37,1.66,0.37c0.62,0,1.17-0.22,1.66-0.66c0.49-0.44,0.73-1.13,0.73-2.06
				C126.48,22.28,126.07,21.63,125.25,21.16z"/>
			<path class="st1" d="M160.29,38.6c0.53-0.49,0.8-1.08,0.8-1.79c-0.04-2.48-0.51-4.73-1.4-6.74c-0.89-2.01-2.06-3.74-3.52-5.18
				c-1.46-1.44-3.14-2.53-5.05-3.29c-1.9-0.75-3.88-1.13-5.91-1.13c-2.75,0-5.35,0.72-7.8,2.16c-2.46,1.44-4.45,3.52-5.98,6.24
				c-1.53,2.72-2.29,6.01-2.29,9.86c0,3.45,0.74,6.5,2.23,9.13c1.48,2.63,3.55,4.71,6.21,6.21c2.66,1.51,5.76,2.26,9.3,2.26
				c2.39,0,4.65-0.52,6.77-1.56c2.13-1.04,3.81-2.25,5.05-3.62c0.71-0.57,1.06-1.24,1.06-1.99c0-0.62-0.21-1.15-0.63-1.59
				c-0.42-0.44-0.96-0.66-1.63-0.66c-0.53,0-1.09,0.2-1.66,0.6c-0.58,0.62-1.28,1.23-2.13,1.83c-0.84,0.6-1.84,1.1-2.99,1.5
				c-1.15,0.4-2.5,0.6-4.05,0.6c-2.48,0-4.65-0.56-6.51-1.69c-1.86-1.13-3.31-2.67-4.35-4.62c-0.9-1.69-1.39-3.62-1.51-5.78h24.12
				C159.14,39.33,159.76,39.08,160.29,38.6z M137.74,28.4c1.04-1.04,2.21-1.79,3.52-2.26c1.31-0.46,2.62-0.7,3.95-0.7
				c1.64,0,3.2,0.35,4.68,1.06c1.48,0.71,2.74,1.72,3.79,3.02c1.04,1.31,1.65,2.87,1.83,4.68v0.53h-20.93
				c0.16-0.83,0.36-1.62,0.64-2.32C135.86,30.78,136.7,29.44,137.74,28.4z"/>
			<path class="st1" d="M167.13,50.22c-0.4-0.57-0.58-1.18-0.53-1.83c0.04-0.64,0.42-1.21,1.13-1.69c0.44-0.31,0.96-0.44,1.56-0.4
				c0.6,0.04,1.14,0.33,1.63,0.86c1.24,1.46,2.66,2.62,4.25,3.49c1.59,0.86,3.54,1.3,5.84,1.3c1.06-0.04,2.13-0.22,3.19-0.53
				c1.06-0.31,1.96-0.85,2.69-1.63c0.73-0.77,1.1-1.8,1.1-3.09c0-1.24-0.38-2.22-1.13-2.96c-0.75-0.73-1.73-1.33-2.92-1.79
				c-1.2-0.46-2.5-0.87-3.92-1.23c-1.46-0.4-2.9-0.85-4.32-1.36c-1.42-0.51-2.69-1.15-3.82-1.93c-1.13-0.77-2.04-1.75-2.72-2.92
				c-0.69-1.17-1.03-2.6-1.03-4.28c0-1.99,0.54-3.72,1.63-5.18c1.08-1.46,2.55-2.59,4.38-3.39c1.84-0.8,3.84-1.2,6.01-1.2
				c1.24,0,2.53,0.14,3.89,0.43c1.35,0.29,2.67,0.78,3.95,1.46c1.28,0.69,2.41,1.63,3.39,2.82c0.4,0.44,0.62,1,0.66,1.66
				c0.04,0.66-0.24,1.26-0.86,1.79c-0.49,0.36-1.03,0.51-1.63,0.47c-0.6-0.04-1.1-0.27-1.49-0.66c-0.93-1.11-2.09-1.96-3.49-2.56
				c-1.39-0.6-2.93-0.9-4.62-0.9c-1.06,0-2.1,0.16-3.12,0.46c-1.02,0.31-1.87,0.83-2.56,1.56c-0.69,0.73-1.03,1.74-1.03,3.02
				c0.04,1.2,0.44,2.17,1.2,2.92c0.75,0.75,1.77,1.36,3.05,1.83c1.28,0.46,2.7,0.92,4.25,1.36c1.42,0.36,2.78,0.76,4.08,1.23
				c1.31,0.46,2.49,1.07,3.55,1.83c1.06,0.75,1.9,1.72,2.52,2.89c0.62,1.17,0.93,2.65,0.93,4.42c0,2.04-0.58,3.8-1.73,5.28
				c-1.15,1.48-2.67,2.61-4.55,3.39c-1.88,0.77-3.91,1.16-6.08,1.16c-2.44,0-4.84-0.46-7.21-1.39
				C170.9,54,168.85,52.43,167.13,50.22z"/>
			<path class="st1" d="M214.81,26.44c0.71,0,1.3-0.23,1.76-0.7c0.47-0.46,0.7-1.05,0.7-1.76c0-0.66-0.23-1.24-0.7-1.73
				c-0.46-0.49-1.05-0.73-1.76-0.73h-6.04v-6.38c0-0.75-0.24-1.38-0.73-1.89c-0.49-0.51-1.11-0.76-1.86-0.76
				c-0.75,0-1.4,0.26-1.93,0.76c-0.53,0.51-0.8,1.14-0.8,1.89v6.38h-4.25c-0.66,0-1.24,0.23-1.73,0.7
				c-0.49,0.46-0.73,1.03-0.73,1.69c0,0.71,0.24,1.31,0.73,1.79c0.49,0.49,1.06,0.73,1.73,0.73h4.25v21.05c0,2.04,0.3,3.62,0.9,4.75
				c0.6,1.13,1.34,1.94,2.22,2.42c0.88,0.49,1.78,0.78,2.69,0.86c0.91,0.09,1.67,0.13,2.29,0.13c1.15,0,2.19-0.28,3.12-0.83
				c0.93-0.55,1.39-1.23,1.39-2.03c0-0.66-0.19-1.21-0.56-1.63c-0.38-0.42-0.79-0.63-1.23-0.63c-0.44,0-0.83,0.08-1.16,0.23
				c-0.33,0.16-0.72,0.23-1.16,0.23c-0.49,0-0.99-0.1-1.49-0.3c-0.51-0.2-0.92-0.56-1.23-1.1c-0.31-0.53-0.46-1.33-0.46-2.39V26.44
				H214.81z"/>
			<path class="st1" d="M256.92,38.4c0,3.45-0.76,6.53-2.29,9.23c-1.53,2.7-3.59,4.83-6.18,6.38c-2.59,1.55-5.5,2.32-8.73,2.32
				c-3.23,0-6.15-0.77-8.77-2.32c-2.61-1.55-4.68-3.67-6.21-6.38c-1.53-2.7-2.29-5.78-2.29-9.23c0-3.45,0.76-6.53,2.29-9.23
				c1.53-2.7,3.6-4.82,6.21-6.38c2.61-1.55,5.53-2.32,8.77-2.32c3.23,0,6.14,0.78,8.73,2.32c2.59,1.55,4.65,3.68,6.18,6.38
				C256.16,31.87,256.92,34.94,256.92,38.4z M251.61,38.4c0-2.57-0.52-4.83-1.56-6.77c-1.04-1.95-2.46-3.48-4.25-4.58
				c-1.79-1.11-3.82-1.66-6.08-1.66c-2.26,0-4.28,0.55-6.08,1.66c-1.79,1.11-3.22,2.63-4.28,4.58c-1.06,1.95-1.59,4.21-1.59,6.77
				c0,2.52,0.53,4.76,1.59,6.71c1.06,1.95,2.49,3.49,4.28,4.62c1.79,1.13,3.82,1.69,6.08,1.69c2.26,0,4.28-0.56,6.08-1.69
				c1.79-1.13,3.21-2.67,4.25-4.62C251.09,43.16,251.61,40.92,251.61,38.4z"/>
			<path class="st1" d="M266.48,55.6c-0.93,0-1.65-0.27-2.16-0.8c-0.51-0.53-0.76-1.26-0.76-2.19v-1.33c0-0.97,0.25-1.73,0.76-2.26
				c0.51-0.53,1.23-0.8,2.16-0.8h0.53c0.97,0,1.7,0.27,2.19,0.8c0.49,0.53,0.73,1.28,0.73,2.26v1.33c0,0.93-0.24,1.66-0.73,2.19
				c-0.49,0.53-1.22,0.8-2.19,0.8H266.48z"/>
			<path class="st1" d="M280.9,16.35c-1.11,0-1.93-0.22-2.46-0.66c-0.53-0.44-0.8-1.13-0.8-2.06v-0.93c0-0.93,0.29-1.62,0.86-2.06
				c0.57-0.44,1.39-0.66,2.46-0.66c1.06,0,1.86,0.22,2.39,0.66c0.53,0.44,0.8,1.13,0.8,2.06v0.93c0,0.93-0.28,1.62-0.83,2.06
				C282.77,16.13,281.96,16.35,280.9,16.35z M283.55,52.94c0,0.75-0.26,1.39-0.76,1.93c-0.51,0.53-1.14,0.8-1.89,0.8
				c-0.8,0-1.44-0.27-1.93-0.8c-0.49-0.53-0.73-1.17-0.73-1.93V23.45c0-0.75,0.25-1.38,0.76-1.89c0.51-0.51,1.14-0.76,1.89-0.76
				c0.75,0,1.38,0.26,1.89,0.76c0.51,0.51,0.76,1.14,0.76,1.89V52.94z"/>
			<path class="st1" d="M307.4,26.44c0.71,0,1.3-0.23,1.76-0.7c0.47-0.46,0.7-1.05,0.7-1.76c0-0.66-0.23-1.24-0.7-1.73
				c-0.46-0.49-1.05-0.73-1.76-0.73h-6.04v-6.38c0-0.75-0.24-1.38-0.73-1.89c-0.49-0.51-1.11-0.76-1.86-0.76
				c-0.75,0-1.4,0.26-1.93,0.76c-0.53,0.51-0.8,1.14-0.8,1.89v6.38h-4.25c-0.66,0-1.24,0.23-1.73,0.7
				c-0.49,0.46-0.73,1.03-0.73,1.69c0,0.71,0.24,1.31,0.73,1.79c0.49,0.49,1.06,0.73,1.73,0.73h4.25v21.05c0,2.04,0.3,3.62,0.9,4.75
				c0.6,1.13,1.34,1.94,2.22,2.42c0.88,0.49,1.78,0.78,2.69,0.86c0.91,0.09,1.67,0.13,2.29,0.13c1.15,0,2.19-0.28,3.12-0.83
				c0.93-0.55,1.39-1.23,1.39-2.03c0-0.66-0.19-1.21-0.56-1.63c-0.38-0.42-0.79-0.63-1.23-0.63c-0.44,0-0.83,0.08-1.16,0.23
				c-0.33,0.16-0.72,0.23-1.16,0.23c-0.49,0-0.99-0.1-1.49-0.3c-0.51-0.2-0.92-0.56-1.23-1.1c-0.31-0.53-0.46-1.33-0.46-2.39V26.44
				H307.4z"/>
		</g>
		<polygon class="st1" points="337.71,51 322.88,36.17 322.88,44.15 32.35,44.15 32.35,57.53 322.88,57.53 322.88,65.83 		"/>
		<rect x="12.29" y="11.2" class="st2" width="40.11" height="40.11"/>
		<g>
			<g>
				<path class="st1" d="M32.21,48.15L17.9,40V22.6l14.31-8.23l14.58,8.23v17.5L32.21,48.15z M18.84,39.46l13.38,7.62l13.64-7.54
					v-16.4l-13.64-7.7l-13.38,7.7V39.46z"/>
			</g>
			<g>
				<polygon class="st1" points="32.21,31.03 18.14,23.28 18.6,22.46 32.22,29.96 46.11,22.45 46.55,23.28 				"/>
			</g>
			<g>
				<rect x="31.75" y="30.49" class="st1" width="0.94" height="17.12"/>
			</g>
			<g>
				
					<rect x="24.24" y="22.27" transform="matrix(0.8682 -0.4961 0.4961 0.8682 -7.0368 18.97)" class="st1" width="15.91" height="0.94"/>
			</g>
			<g>
				<path class="st1" d="M34.76,38.23v-5.64l5.08-2.78v5.49L34.76,38.23z M35.69,33.14v3.47l3.21-1.85v-3.37L35.69,33.14z"/>
			</g>
		</g>
		<g>
			<defs>
				<rect id="SVGID_1_" x="32.35" y="44.15" width="292.83" height="13.39"/>
			</defs>
			<clipPath id="SVGID_00000008121597821048134240000009400509652474599336_">
				<use xlink:href="#SVGID_1_"  style="overflow:visible;"/>
			</clipPath>
			<path style="clip-path:url(#SVGID_00000008121597821048134240000009400509652474599336_);" d="M85.17,9.17
				c2.43,0,4.63,0.6,6.57,1.79c1.95,1.2,3.49,2.83,4.62,4.92c1.13,2.08,1.69,4.45,1.69,7.11c0,2.61-0.56,4.98-1.69,7.11
				c-1.13,2.13-2.67,3.81-4.62,5.05C89.8,36.38,87.61,37,85.17,37H71.69l0.46-0.8v16.74c0,0.75-0.24,1.39-0.73,1.93
				c-0.49,0.53-1.11,0.8-1.86,0.8c-0.8,0-1.43-0.27-1.89-0.8c-0.46-0.53-0.7-1.17-0.7-1.93V11.83c0-0.75,0.25-1.38,0.76-1.89
				c0.51-0.51,1.14-0.76,1.89-0.76H85.17z M85.17,31.89c1.46,0,2.74-0.4,3.85-1.2c1.11-0.8,1.99-1.88,2.66-3.25
				c0.66-1.37,1-2.86,1-4.45c0-1.68-0.33-3.17-1-4.45c-0.66-1.28-1.55-2.31-2.66-3.09c-1.11-0.77-2.39-1.16-3.85-1.16H71.69
				l0.46-0.73v18.99l-0.46-0.66H85.17z"/>
			<path style="clip-path:url(#SVGID_00000008121597821048134240000009400509652474599336_);" d="M125.25,21.16
				c-0.82-0.46-1.72-0.7-2.69-0.7c-1.64,0-3.14,0.3-4.52,0.9c-1.37,0.6-2.59,1.42-3.65,2.46c-1.06,1.04-1.94,2.21-2.62,3.52
				c-0.24,0.46-0.44,0.92-0.63,1.38v-4.73c0-0.75-0.24-1.38-0.73-1.89c-0.49-0.51-1.13-0.76-1.93-0.76c-0.75,0-1.38,0.26-1.89,0.76
				c-0.51,0.51-0.76,1.14-0.76,1.89v28.96c0,0.75,0.25,1.39,0.76,1.93c0.51,0.53,1.14,0.8,1.89,0.8c0.75,0,1.38-0.27,1.89-0.8
				c0.51-0.53,0.76-1.17,0.76-1.93V36.8c0-1.59,0.28-3.09,0.83-4.48c0.55-1.4,1.28-2.65,2.19-3.75c0.91-1.11,1.9-1.96,2.99-2.56
				c1.08-0.6,2.18-0.9,3.29-0.9c0.8,0,1.46,0.12,1.99,0.37c0.53,0.24,1.08,0.37,1.66,0.37c0.62,0,1.17-0.22,1.66-0.66
				c0.49-0.44,0.73-1.13,0.73-2.06C126.48,22.28,126.07,21.63,125.25,21.16z"/>
			<path style="clip-path:url(#SVGID_00000008121597821048134240000009400509652474599336_);" d="M160.29,38.6
				c0.53-0.49,0.8-1.08,0.8-1.79c-0.04-2.48-0.51-4.73-1.4-6.74c-0.89-2.01-2.06-3.74-3.52-5.18c-1.46-1.44-3.14-2.53-5.05-3.29
				c-1.9-0.75-3.88-1.13-5.91-1.13c-2.75,0-5.35,0.72-7.8,2.16c-2.46,1.44-4.45,3.52-5.98,6.24c-1.53,2.72-2.29,6.01-2.29,9.86
				c0,3.45,0.74,6.5,2.23,9.13c1.48,2.63,3.55,4.71,6.21,6.21c2.66,1.51,5.76,2.26,9.3,2.26c2.39,0,4.65-0.52,6.77-1.56
				c2.13-1.04,3.81-2.25,5.05-3.62c0.71-0.57,1.06-1.24,1.06-1.99c0-0.62-0.21-1.15-0.63-1.59c-0.42-0.44-0.96-0.66-1.63-0.66
				c-0.53,0-1.09,0.2-1.66,0.6c-0.58,0.62-1.28,1.23-2.13,1.83c-0.84,0.6-1.84,1.1-2.99,1.5c-1.15,0.4-2.5,0.6-4.05,0.6
				c-2.48,0-4.65-0.56-6.51-1.69c-1.86-1.13-3.31-2.67-4.35-4.62c-0.9-1.69-1.39-3.62-1.51-5.78h24.12
				C159.14,39.33,159.76,39.08,160.29,38.6z M137.74,28.4c1.04-1.04,2.21-1.79,3.52-2.26c1.31-0.46,2.62-0.7,3.95-0.7
				c1.64,0,3.2,0.35,4.68,1.06c1.48,0.71,2.74,1.72,3.79,3.02c1.04,1.31,1.65,2.87,1.83,4.68v0.53h-20.93
				c0.16-0.83,0.36-1.62,0.64-2.32C135.86,30.78,136.7,29.44,137.74,28.4z"/>
			<path style="clip-path:url(#SVGID_00000008121597821048134240000009400509652474599336_);" d="M167.13,50.22
				c-0.4-0.57-0.58-1.18-0.53-1.83c0.04-0.64,0.42-1.21,1.13-1.69c0.44-0.31,0.96-0.44,1.56-0.4c0.6,0.04,1.14,0.33,1.63,0.86
				c1.24,1.46,2.66,2.62,4.25,3.49c1.59,0.86,3.54,1.3,5.84,1.3c1.06-0.04,2.13-0.22,3.19-0.53c1.06-0.31,1.96-0.85,2.69-1.63
				c0.73-0.77,1.1-1.8,1.1-3.09c0-1.24-0.38-2.22-1.13-2.96c-0.75-0.73-1.73-1.33-2.92-1.79c-1.2-0.46-2.5-0.87-3.92-1.23
				c-1.46-0.4-2.9-0.85-4.32-1.36c-1.42-0.51-2.69-1.15-3.82-1.93c-1.13-0.77-2.04-1.75-2.72-2.92c-0.69-1.17-1.03-2.6-1.03-4.28
				c0-1.99,0.54-3.72,1.63-5.18c1.08-1.46,2.55-2.59,4.38-3.39c1.84-0.8,3.84-1.2,6.01-1.2c1.24,0,2.53,0.14,3.89,0.43
				c1.35,0.29,2.67,0.78,3.95,1.46c1.28,0.69,2.41,1.63,3.39,2.82c0.4,0.44,0.62,1,0.66,1.66c0.04,0.66-0.24,1.26-0.86,1.79
				c-0.49,0.36-1.03,0.51-1.63,0.47c-0.6-0.04-1.1-0.27-1.49-0.66c-0.93-1.11-2.09-1.96-3.49-2.56c-1.39-0.6-2.93-0.9-4.62-0.9
				c-1.06,0-2.1,0.16-3.12,0.46c-1.02,0.31-1.87,0.83-2.56,1.56c-0.69,0.73-1.03,1.74-1.03,3.02c0.04,1.2,0.44,2.17,1.2,2.92
				c0.75,0.75,1.77,1.36,3.05,1.83c1.28,0.46,2.7,0.92,4.25,1.36c1.42,0.36,2.78,0.76,4.08,1.23c1.31,0.46,2.49,1.07,3.55,1.83
				c1.06,0.75,1.9,1.72,2.52,2.89c0.62,1.17,0.93,2.65,0.93,4.42c0,2.04-0.58,3.8-1.73,5.28c-1.15,1.48-2.67,2.61-4.55,3.39
				c-1.88,0.77-3.91,1.16-6.08,1.16c-2.44,0-4.84-0.46-7.21-1.39C170.9,54,168.85,52.43,167.13,50.22z"/>
			<path style="clip-path:url(#SVGID_00000008121597821048134240000009400509652474599336_);" d="M214.81,26.44
				c0.71,0,1.3-0.23,1.76-0.7c0.47-0.46,0.7-1.05,0.7-1.76c0-0.66-0.23-1.24-0.7-1.73c-0.46-0.49-1.05-0.73-1.76-0.73h-6.04v-6.38
				c0-0.75-0.24-1.38-0.73-1.89c-0.49-0.51-1.11-0.76-1.86-0.76c-0.75,0-1.4,0.26-1.93,0.76c-0.53,0.51-0.8,1.14-0.8,1.89v6.38
				h-4.25c-0.66,0-1.24,0.23-1.73,0.7c-0.49,0.46-0.73,1.03-0.73,1.69c0,0.71,0.24,1.31,0.73,1.79c0.49,0.49,1.06,0.73,1.73,0.73
				h4.25v21.05c0,2.04,0.3,3.62,0.9,4.75c0.6,1.13,1.34,1.94,2.22,2.42c0.88,0.49,1.78,0.78,2.69,0.86
				c0.91,0.09,1.67,0.13,2.29,0.13c1.15,0,2.19-0.28,3.12-0.83c0.93-0.55,1.39-1.23,1.39-2.03c0-0.66-0.19-1.21-0.56-1.63
				c-0.38-0.42-0.79-0.63-1.23-0.63c-0.44,0-0.83,0.08-1.16,0.23c-0.33,0.16-0.72,0.23-1.16,0.23c-0.49,0-0.99-0.1-1.49-0.3
				c-0.51-0.2-0.92-0.56-1.23-1.1c-0.31-0.53-0.46-1.33-0.46-2.39V26.44H214.81z"/>
			<path style="clip-path:url(#SVGID_00000008121597821048134240000009400509652474599336_);" d="M256.92,38.4
				c0,3.45-0.76,6.53-2.29,9.23c-1.53,2.7-3.59,4.83-6.18,6.38c-2.59,1.55-5.5,2.32-8.73,2.32c-3.23,0-6.15-0.77-8.77-2.32
				c-2.61-1.55-4.68-3.67-6.21-6.38c-1.53-2.7-2.29-5.78-2.29-9.23c0-3.45,0.76-6.53,2.29-9.23c1.53-2.7,3.6-4.82,6.21-6.38
				c2.61-1.55,5.53-2.32,8.77-2.32c3.23,0,6.14,0.78,8.73,2.32c2.59,1.55,4.65,3.68,6.18,6.38
				C256.16,31.87,256.92,34.94,256.92,38.4z M251.61,38.4c0-2.57-0.52-4.83-1.56-6.77c-1.04-1.95-2.46-3.48-4.25-4.58
				c-1.79-1.11-3.82-1.66-6.08-1.66c-2.26,0-4.28,0.55-6.08,1.66c-1.79,1.11-3.22,2.63-4.28,4.58c-1.06,1.95-1.59,4.21-1.59,6.77
				c0,2.52,0.53,4.76,1.59,6.71c1.06,1.95,2.49,3.49,4.28,4.62c1.79,1.13,3.82,1.69,6.08,1.69c2.26,0,4.28-0.56,6.08-1.69
				c1.79-1.13,3.21-2.67,4.25-4.62C251.09,43.16,251.61,40.92,251.61,38.4z"/>
			<path style="clip-path:url(#SVGID_00000008121597821048134240000009400509652474599336_);" d="M266.48,55.6
				c-0.93,0-1.65-0.27-2.16-0.8c-0.51-0.53-0.76-1.26-0.76-2.19v-1.33c0-0.97,0.25-1.73,0.76-2.26c0.51-0.53,1.23-0.8,2.16-0.8h0.53
				c0.97,0,1.7,0.27,2.19,0.8c0.49,0.53,0.73,1.28,0.73,2.26v1.33c0,0.93-0.24,1.66-0.73,2.19c-0.49,0.53-1.22,0.8-2.19,0.8H266.48z
				"/>
			<path style="clip-path:url(#SVGID_00000008121597821048134240000009400509652474599336_);" d="M280.9,16.35
				c-1.11,0-1.93-0.22-2.46-0.66c-0.53-0.44-0.8-1.13-0.8-2.06v-0.93c0-0.93,0.29-1.62,0.86-2.06c0.57-0.44,1.39-0.66,2.46-0.66
				c1.06,0,1.86,0.22,2.39,0.66c0.53,0.44,0.8,1.13,0.8,2.06v0.93c0,0.93-0.28,1.62-0.83,2.06
				C282.77,16.13,281.96,16.35,280.9,16.35z M283.55,52.94c0,0.75-0.26,1.39-0.76,1.93c-0.51,0.53-1.14,0.8-1.89,0.8
				c-0.8,0-1.44-0.27-1.93-0.8c-0.49-0.53-0.73-1.17-0.73-1.93V23.45c0-0.75,0.25-1.38,0.76-1.89c0.51-0.51,1.14-0.76,1.89-0.76
				c0.75,0,1.38,0.26,1.89,0.76c0.51,0.51,0.76,1.14,0.76,1.89V52.94z"/>
			<path style="clip-path:url(#SVGID_00000008121597821048134240000009400509652474599336_);" d="M307.4,26.44
				c0.71,0,1.3-0.23,1.76-0.7c0.47-0.46,0.7-1.05,0.7-1.76c0-0.66-0.23-1.24-0.7-1.73c-0.46-0.49-1.05-0.73-1.76-0.73h-6.04v-6.38
				c0-0.75-0.24-1.38-0.73-1.89c-0.49-0.51-1.11-0.76-1.86-0.76c-0.75,0-1.4,0.26-1.93,0.76c-0.53,0.51-0.8,1.14-0.8,1.89v6.38
				h-4.25c-0.66,0-1.24,0.23-1.73,0.7c-0.49,0.46-0.73,1.03-0.73,1.69c0,0.71,0.24,1.31,0.73,1.79c0.49,0.49,1.06,0.73,1.73,0.73
				h4.25v21.05c0,2.04,0.3,3.62,0.9,4.75c0.6,1.13,1.34,1.94,2.22,2.42c0.88,0.49,1.78,0.78,2.69,0.86
				c0.91,0.09,1.67,0.13,2.29,0.13c1.15,0,2.19-0.28,3.12-0.83c0.93-0.55,1.39-1.23,1.39-2.03c0-0.66-0.19-1.21-0.56-1.63
				c-0.38-0.42-0.79-0.63-1.23-0.63c-0.44,0-0.83,0.08-1.16,0.23c-0.33,0.16-0.72,0.23-1.16,0.23c-0.49,0-0.99-0.1-1.49-0.3
				c-0.51-0.2-0.92-0.56-1.23-1.1c-0.31-0.53-0.46-1.33-0.46-2.39V26.44H307.4z"/>
		</g>
	</g>
</g>
<g id="Livello_2">
</g>
</svg>
